<svg xmlns="http://www.w3.org/2000/svg" viewBox="0 0 841.9 595.3">
    <g fill="#61DAFB">
        <path d="M666.3 296.5c0-32.5-40.7-63.3-103.1-82.4 14.4-63.6 8-114.2-20.2-130.4-6.5-3.8-14.1-5.6-22.4-5.6v22.3c4.6 0 8.3.9 11.4 2.6 13.6 7.8 19.5 37.5 14.9 75.7-1.1 9.4-2.9 19.3-5.1 29.4-19.6-4.8-41-8.5-63.5-10.9-13.5-18.5-27.5-35.3-41.6-50 32.6-30.3 63.2-46.9 84-46.9V78c-27.5 0-63.5 19.6-99.9 53.6-36.4-33.8-72.4-53.2-99.9-53.2v22.3c20.7 0 51.4 16.5 84 46.6-14 14.7-28 31.4-41.3 49.9-22.6 2.4-44 6.1-63.6 11-2.3-10-4-19.7-5.2-29-4.7-38.2 1.1-67.9 14.6-75.8 3-1.8 6.9-2.6 11.5-2.6V78.5c-8.4 0-16 1.8-22.5 5.6-28.1 16.2-34.4 66.7-19.9 130.1-62.2 19.2-102.7 49.9-102.7 82.3 0 32.5 40.7 63.3 103.1 82.4-14.4 63.6-8 114.2 20.2 130.4 6.5 3.8 14.1 5.6 22.5 5.6 27.5 0 63.5-19.6 99.9-53.6 36.4 33.8 72.4 53.2 99.9 53.2 8.4 0 16-1.8 22.5-5.6 28.1-16.2 34.4-66.7 19.9-130.1 62-19.1 102.5-49.9 102.5-82.3zm-130.2-66.7c-3.7 12.9-8.3 26.2-13.5 39.5-4.1-8-8.4-16-13.1-24-4.6-8-9.5-15.8-14.4-23.4 14.2 2.1 27.9 4.7 41 7.9zm-45.8 106.5c-7.8 13.5-15.8 26.3-24.1 38.2-14.9 1.3-30 2-45.2 2-15.1 0-30.2-.7-45-1.9-8.3-11.9-16.4-24.6-24.2-38-7.6-13.1-14.4-26.4-20.4-39.9 6 1.3 12 2.5 18.1 3.6 5.9 1.1 11.9 2.1 18 3.1 15.1 2.5 30.7 3.8 46.6 3.8s31.5-1.3 46.6-3.8c6.1-1 12.1-2 18-3.1 6.1-1.1 12.1-2.3 18.1-3.6-6 13.5-12.8 26.8-20.4 39.9zm-62.8-28.4c-12.9-7.8-25.5-15.5-37.7-23.2-4.8 7.6-9.3 15.1-13.4 22.6-4.1 7.5-7.9 15.1-11.4 22.7 12.8 4.5 25.9 8 39.3 10.3 13.1-2.4 26-5.8 38.6-10.2-3.3-7.5-6.9-15-10.7-22.5-3.8-7.4-7.9-14.8-12.3-22.1zM421.2 430c-9.3-9.3-18.3-19.3-26.9-29.9-9.3 10.9-19.1 21.2-29.4 30.6-10.1-9.3-19.9-19.6-29.3-30.3-9.1 10.4-18.1 20.4-26.9 29.9-11.7-13.4-22.8-27.8-33.1-43-10.4 15.2-21.5 29.6-33.1 43-9-9.6-18-19.6-27-30.1-9.6 10.8-19.8 21.2-30.4 31.2 11.9 11.7 24.3 22.5 37.3 32.4 13.1-9.9 25.5-20.6 37.3-32.4 11.7 11.8 24.1 22.5 37.3 32.4 13-9.9 25.4-20.6 37.2-32.4 11.8 11.8 24.2 22.5 37.2 32.4 13.1-9.9 25.5-20.6 37.3-32.4zm-15.1-29.4c-9.3-10.9-19.1-21.2-29.4-30.6-10.1 9.3-19.9 19.6-29.3 30.3 9.1 10.4 18.1 20.4 26.9 29.9 9.3-9.3 18.3-19.3 26.9-29.9zm-1.1-103.2c-14.2-2.1-27.9-4.7-41-7.9 3.7-12.9 8.3-26.2 13.5-39.5 4.1 8 8.4 16 13.1 24 4.6 8 9.5 15.8 14.4 23.4zM554.3 296.5c0-32.5-40.7-63.3-103.1-82.4 14.4-63.6 8-114.2-20.2-130.4-6.5-3.8-14.1-5.6-22.4-5.6v22.3c4.6 0 8.3.9 11.4 2.6 13.6 7.8 19.5 37.5 14.9 75.7-1.1 9.4-2.9 19.3-5.1 29.4-19.6-4.8-41-8.5-63.5-10.9-13.5-18.5-27.5-35.3-41.6-50 32.6-30.3 63.2-46.9 84-46.9V78c-27.5 0-63.5 19.6-99.9 53.6-36.4-33.8-72.4-53.2-99.9-53.2v22.3c20.7 0 51.4 16.5 84 46.6-14 14.7-28 31.4-41.3 49.9-22.6 2.4-44 6.1-63.6 11-2.3-10-4-19.7-5.2-29-4.7-38.2 1.1-67.9 14.6-75.8 3-1.8 6.9-2.6 11.5-2.6V78.5c-8.4 0-16 1.8-22.5 5.6-28.1 16.2-34.4 66.7-19.9 130.1-62.2 19.2-102.7 49.9-102.7 82.3 0 32.5 40.7 63.3 103.1 82.4-14.4 63.6-8 114.2 20.2 130.4 6.5 3.8 14.1 5.6 22.5 5.6 27.5 0 63.5-19.6 99.9-53.6 36.4 33.8 72.4 53.2 99.9 53.2 8.4 0 16-1.8 22.5-5.6 28.1-16.2 34.4-66.7 19.9-130.1 62-19.1 102.5-49.9 102.5-82.3zm-130.2-66.7c-3.7 12.9-8.3 26.2-13.5 39.5-4.1-8-8.4-16-13.1-24-4.6-8-9.5-15.8-14.4-23.4 14.2 2.1 27.9 4.7 41 7.9zm-45.8 106.5c-7.8 13.5-15.8 26.3-24.1 38.2-14.9 1.3-30 2-45.2 2-15.1 0-30.2-.7-45-1.9-8.3-11.9-16.4-24.6-24.2-38-7.6-13.1-14.4-26.4-20.4-39.9 6 1.3 12 2.5 18.1 3.6 5.9 1.1 11.9 2.1 18 3.1 15.1 2.5 30.7 3.8 46.6 3.8s31.5-1.3 46.6-3.8c6.1-1 12.1-2 18-3.1 6.1-1.1 12.1-2.3 18.1-3.6-6 13.5-12.8 26.8-20.4 39.9zm-62.8-28.4c-12.9-7.8-25.5-15.5-37.7-23.2-4.8 7.6-9.3 15.1-13.4 22.6-4.1 7.5-7.9 15.1-11.4 22.7 12.8 4.5 25.9 8 39.3 10.3 13.1-2.4 26-5.8 38.6-10.2-3.3-7.5-6.9-15-10.7-22.5-3.8-7.4-7.9-14.8-12.3-22.1zM421.2 430c-9.3-9.3-18.3-19.3-26.9-29.9-9.3 10.9-19.1 21.2-29.4 30.6-10.1-9.3-19.9-19.6-29.3-30.3-9.1 10.4-18.1 20.4-26.9 29.9-11.7-13.4-22.8-27.8-33.1-43-10.4 15.2-21.5 29.6-33.1 43-9-9.6-18-19.6-27-30.1-9.6 10.8-19.8 21.2-30.4 31.2 11.9 11.7 24.3 22.5 37.3 32.4 13.1-9.9 25.5-20.6 37.3-32.4 11.7 11.8 24.1 22.5 37.3 32.4 13-9.9 25.4-20.6 37.2-32.4 11.8 11.8 24.2 22.5 37.2 32.4 13.1-9.9 25.5-20.6 37.3-32.4zm-15.1-29.4c-9.3-10.9-19.1-21.2-29.4-30.6-10.1 9.3-19.9 19.6-29.3 30.3 9.1 10.4 18.1 20.4 26.9 29.9 9.3-9.3 18.3-19.3 26.9-29.9zm-1.1-103.2c-14.2-2.1-27.9-4.7-41-7.9 3.7-12.9 8.3-26.2 13.5-39.5 4.1 8 8.4 16 13.1 24 4.6 8 9.5 15.8 14.4 23.4z"></path>
        <circle cx="420.9" cy="296.5" r="45.7"></circle>
        <path d="M520.5 296.5c0 55.6-45.2 100.8-100.8 100.8s-100.8-45.2-100.8-100.8 45.2-100.8 100.8-100.8 100.8 45.2 100.8 100.8zm-100.8 88.9c49.1 0 88.9-39.8 88.9-88.9s-39.8-88.9-88.9-88.9-88.9 39.8-88.9 88.9 39.8 88.9 88.9 88.9z"></path>
    </g>
</svg>